<svg width="132" height="41" viewBox="0 0 132 41" fill="none" xmlns="http://www.w3.org/2000/svg">
<path d="M0 0.5H19.7289C23.4001 0.5 26.8104 3.28515 26.8104 6.92423C26.8104 10.5633 23.4001 13.3534 19.7289 13.3534H5.53629V18.4372H0V0.5ZM5.53629 9.25264H18.6807C19.9946 9.25264 21.2791 8.23985 21.2791 6.92423C21.2791 5.6086 19.9946 4.62064 18.6807 4.62064H5.53629V9.25264Z" fill="#A2DB00"/>
<path d="M49.9546 0.5C53.6258 0.5 57.0361 3.28515 57.0361 6.92423C57.0361 9.55548 55.3039 11.581 52.9713 12.7179L51.4211 13.4279C52.0756 14.2619 52.7055 15.0215 53.2862 15.7067C53.5224 15.9847 53.7832 16.2875 54.0195 16.5655L54.7035 17.3996C55.1218 17.906 55.4368 18.3081 55.5696 18.4372H49.428L45.2549 13.3534H35.7571V18.4372H30.2208V0.5H49.9497H49.9546ZM35.762 9.25264H48.9064C50.2203 9.25264 51.5048 8.23985 51.5048 6.92423C51.5048 5.6086 50.2203 4.62064 48.9064 4.62064H35.762V9.25264Z" fill="#A2DB00"/>
<path d="M60.4514 18.4422V0.504965H65.9877V18.4422H60.4514Z" fill="#A2DB00"/>
<path d="M78.0052 0.5L87.3996 13.6066L96.7646 0.5H104.058V18.4372H98.5214V6.49231L90.0226 18.4372H84.7471L76.2483 6.49231V18.4372H70.712V0.5H78.0052Z" fill="#A2DB00"/>
<path d="M108.782 18.4422V0.504965H132V4.22347H114.318V7.79303H130.455L129.328 11.1094H114.318V14.7286H132V18.4471H108.782V18.4422Z" fill="#A2DB00"/>
<path d="M36 40.3858V34.2793C36 33.7134 36.4577 33.3906 37.7224 33.3906C38.9871 33.3906 39.6859 33.6985 40.0157 34.19L43.2636 39.0454H43.426L46.674 34.2942C47.0234 33.7978 47.7369 33.3758 48.9672 33.3758C50.0302 33.3758 50.5076 33.6935 50.5076 34.2446V40.3809H48.3422V34.88H48.2143L44.7695 39.8844C44.5136 40.2418 43.9969 40.5 43.2636 40.5C42.5304 40.5 41.9448 40.2716 41.7233 39.9042L38.3129 34.88H38.1653V40.3809H36V40.3858Z" fill="#A2DB00"/>
<path d="M55.0153 33.4304V40.3858H52.7959V33.4304H55.0153Z" fill="#A2DB00"/>
<path d="M57.9139 34.3935C57.9139 33.768 58.6816 33.3857 59.7839 33.3857C60.9552 33.3857 61.654 33.5545 62.3675 34.3439L66.8212 39.2092H67.0574V33.4304H69.2227V39.5766C69.2227 40.1326 68.268 40.4752 67.1115 40.4752C66.1765 40.4752 65.4236 40.2468 64.8183 39.6064L60.2711 34.746H60.0694V40.3858H57.9041V34.3885L57.9139 34.3935Z" fill="#A2DB00"/>
<path d="M73.4303 38.4893C74.0159 39.1645 75.0247 39.4673 77.1506 39.4673C79.3898 39.4673 80.4134 39.1198 80.4134 38.3801C80.4134 37.9333 80.0295 37.6106 79.0207 37.5609L75.6103 37.412C73.632 37.3326 71.9785 36.707 71.9785 35.2772C71.9785 33.8474 73.4844 33.3559 77.1654 33.3559C80.374 33.3559 81.3632 33.6141 82.372 34.6219L80.6496 35.2574C80.0098 34.5971 79.1831 34.3687 77.0178 34.3687C74.7245 34.3687 74.1586 34.6268 74.1586 35.2871C74.1586 36.0368 74.8721 36.3347 76.2698 36.3943L79.1486 36.5233C81.6633 36.6425 82.559 37.1985 82.559 38.395C82.559 39.8894 81.1466 40.4901 77.0768 40.4901C74.3604 40.4901 72.8791 40.222 71.9047 39.234L73.4253 38.4943L73.4303 38.4893Z" fill="#A2DB00"/>
<path d="M85.2213 33.4304H87.4408V40.3858H85.2213V33.4304ZM87.549 37.4468V36.8709L92.0027 33.4254H94.5715L90.3885 36.6325C90.1326 36.7914 89.8374 36.8411 89.4732 36.8411H88.7744V36.9404H89.0303C90.3147 36.9404 91.6139 37.278 92.421 37.968L95.2801 40.3809H92.7113L89.9407 38.0078C89.5372 37.6602 88.676 37.4418 87.8492 37.4418H87.5392L87.549 37.4468Z" fill="#A2DB00"/>
<path d="M42.3481 17.9568C42.1388 18.4223 41.5854 20.1714 41.2414 20.9495C40.3403 23.2805 39.9253 24.9132 39.3719 27.4005C38.8859 29.3823 38.7476 30.5859 38.7476 31.5205C38.7476 32.1423 38.7476 32.2187 38.8185 32.415C38.9569 32.6478 38.9569 32.8041 38.8895 32.9605C38.7511 33.0769 38.6128 33.1169 38.3361 33.1169H38.0594C37.091 33.0405 35.7749 32.3787 35.0832 31.7169C34.8739 31.4841 34.5972 31.095 34.5298 30.7859C34.3915 30.4769 34.4589 29.4659 34.5298 28.8805C34.5298 28.6878 34.6008 28.4514 34.6008 28.4514C34.5298 28.4514 34.3915 28.5278 34.1857 28.6078C30.1028 30.5132 27.5381 31.5205 26.2929 31.7169C26.0837 31.7569 25.8779 31.7569 25.6012 31.7569C25.2536 31.7569 24.8385 31.7569 24.4945 31.7169C22.9017 31.4441 21.1706 30.6659 20.6172 29.8914C19.9255 29.0368 20.3405 27.6768 21.8623 26.1605C23.5225 24.4514 27.8857 21.3423 31.9013 21.3423C32.8023 21.3423 33.6998 21.4986 34.6717 21.8077C34.9484 21.8841 35.3634 22.0405 35.5727 22.1568C35.8494 22.2732 36.0587 22.3496 36.0587 22.3496C36.0587 22.3496 36.1971 22.0405 36.3354 21.6877C36.5447 20.8732 36.8888 20.1714 37.3748 19.0077C37.5841 18.5023 37.7898 18.0768 37.7224 18.0768C37.7224 18.0768 36.5447 18.3095 35.0903 18.6586C33.7068 18.9677 31.8374 19.3968 31.0073 19.5532C30.1773 19.7459 28.9322 20.0586 28.1695 20.215C27.4778 20.4077 26.4384 20.6405 25.885 20.7605C25.2607 20.9168 24.7073 21.0696 24.6399 21.1095C24.4306 21.1859 24.1539 21.2259 23.6715 21.2259H23.4622C23.2529 21.2259 23.1145 21.1859 22.8379 21.1496C21.7311 20.8005 20 19.9823 20 19.2441C20 18.9714 20.0709 18.935 21.2451 18.6223C21.7985 18.4659 22.6995 18.1932 23.2529 18.0404C23.8063 17.8841 24.6363 17.6914 25.1223 17.575C27.1975 16.9932 37.7224 14.5823 38.8292 14.5823C39.5209 14.5823 39.9359 14.6986 40.6277 15.1277C41.4577 15.5568 42.0111 16.0986 42.2878 16.6804C42.4971 17.0295 42.4971 17.535 42.3588 17.9641L42.3481 17.9568ZM33.6253 24.7568C33.5543 24.4477 33.4869 23.8623 33.416 23.8259C33.345 23.7859 32.6533 24.0587 31.8942 24.3714C29.9573 25.1496 27.9495 26.5096 26.6335 27.8696C26.4951 27.9859 26.4242 28.1023 26.4242 28.1023C26.4242 28.1023 26.7718 27.9859 27.1159 27.8296C28.847 27.0514 30.5072 26.2768 32.1709 25.4987C33.3486 24.9532 33.6253 24.8368 33.6253 24.7605V24.7568Z" fill="#262626"/>
<path d="M68.9891 32.6177C68.9783 32.8349 68.4345 33.0343 67.695 33.0841C67.4267 33.1126 66.6908 33.1268 66.089 33.109L65.5561 33.0912C64.8238 32.9987 64.2293 32.8349 63.8342 32.6782C62.3297 31.9092 62.2681 26.1236 62.3225 25.0021L62.337 24.6781L61.5648 25.4507C58.759 28.1886 56.399 29.9617 54.764 30.599C54.358 30.7307 53.7454 30.8945 53.2741 30.9514C53.0747 30.9443 52.7376 30.9728 52.3352 30.9586C51.8023 30.9408 51.2694 30.8909 50.867 30.8411C49.0762 30.5349 48.0212 30.1397 47.3143 29.5059C46.4842 28.6479 46.089 27.0813 46.0274 24.1511C46.0745 23.1756 46.1362 21.8761 46.3355 20.4377C46.35 20.1493 46.4407 19.6081 46.4552 19.3197C46.5386 18.9601 46.5567 18.5649 46.6328 18.4225C46.7271 17.8457 46.7379 17.5929 46.7597 17.123C46.8829 15.9338 47.0425 15.3606 47.1983 14.9298C47.289 14.4278 47.4992 14.2142 47.9741 14.1216C48.1771 14.0539 48.4454 14.0646 48.8478 14.0753C49.1813 14.086 49.5837 14.0967 49.8483 14.1785C50.8416 14.3886 51.6319 14.6663 52.2844 15.0473C52.8064 15.3179 52.9986 15.5386 53.3103 16.0193C53.5605 16.3895 53.6221 16.4999 53.4155 16.5996C53.2088 16.7385 53.0058 16.7669 52.4729 16.7527L52.0053 16.7385L51.998 16.92C51.9944 17.0268 51.9219 17.1337 51.9183 17.1693C51.9147 17.2049 51.8929 17.6748 51.8023 18.216C51.7769 18.7216 51.6609 19.8039 51.5594 20.5231C51.2513 22.8267 51.2041 25.2121 51.3383 26.6256C51.4398 27.2807 51.6573 28.3702 51.6573 28.4058C51.7225 28.4449 53.1146 27.327 53.9556 26.5223C57.0261 23.8663 59.6326 21.0536 62.337 17.625C63.12 16.6352 63.1889 16.6032 63.526 16.5391C63.729 16.5106 63.932 16.4785 64.1967 16.4857C65.4655 16.5248 67.5101 17.2013 68.014 17.8279C68.1409 17.9775 68.1372 18.0843 67.9886 19.8146C67.6007 23.8165 67.695 28.9185 68.2605 31.0689C68.3692 31.5781 68.5541 31.9448 68.8043 32.3151C68.9311 32.4646 68.9928 32.6106 68.9928 32.6106L68.9891 32.6177Z" fill="#262626"/>
<path d="M98.771 15.2716C98.7349 15.7212 98.7313 15.7575 98.5942 15.9351C98.5257 16.0076 98.3922 16.1491 98.3308 16.1817C98.2034 16.2494 98.0578 16.2796 97.8943 16.2723C97.1763 16.0838 96.2671 15.9968 95.5347 15.9569C92.9767 15.8191 89.0441 16.0548 84.2961 16.5479C83.1199 16.7075 81.8247 16.8634 81.8247 16.8634C81.7597 16.896 81.4134 18.9411 81.2402 20.3189C81.0273 21.4321 80.7495 24.9022 80.7712 26.1423C80.6738 31.1606 80.948 33.8366 81.6299 34.4711C82.1458 34.9099 82.1963 35.0259 81.9365 35.1999C81.7417 35.3377 81.4964 35.3631 80.8253 35.3269L80.5222 35.3087L80.0352 35.2833C79.31 35.1673 78.4729 34.9352 78.0039 34.6851C76.5932 33.9707 76.1927 32.8612 76.0448 29.4056C75.8464 25.7978 76.1026 21.8382 76.8169 18.3174L76.8602 17.759C76.8602 17.7227 75.3665 18.089 74.7388 18.2811C73.5518 18.593 72.9817 18.8613 72.841 19.0789C72.7652 19.2638 72.5776 19.3254 72.271 19.3109C71.2355 19.2565 69.6372 17.8569 69.7057 16.9975C69.7202 16.8126 69.7238 16.7727 69.9258 16.5588C70.9216 15.6015 75.2042 14.7821 76.8819 14.463C77.4411 14.3433 77.69 14.2817 77.6936 14.2454C78.2384 12.0263 79.3605 8.71218 79.6672 7.97973C79.8187 7.61351 80.0712 7.51561 80.6197 7.54462C81.8355 7.60988 83.9533 8.66141 84.0724 9.4555C84.0628 9.57879 84.0147 9.67669 83.9281 9.74921C83.8631 9.78184 83.7333 9.887 83.726 9.96314C83.5096 10.362 82.5174 13.571 82.5751 13.6109C86.349 13.067 91.0284 12.6826 94.8636 12.8893C95.5347 12.9256 97.5407 13.0343 97.9376 13.4296C98.2875 13.6363 98.5617 14.0242 98.7133 14.4449C98.8143 14.7132 98.8035 14.8256 98.7674 15.2716H98.771Z" fill="#262626"/>
<path d="M110.96 26.0965C110.558 27.3611 109.292 28.5054 106.96 29.8466C103.892 31.6251 99.9599 32.8861 95.6261 32.8861C95.2279 32.8861 94.8262 32.8861 94.5595 32.846C92.4264 32.6893 90.6915 32.1754 89.0917 31.1878C86.891 29.8466 85.8245 28.1082 86.0236 26.2933C86.2226 24.8318 88.2918 20.7646 90.8231 20.1341C91.0221 20.094 91.2248 20.0539 91.3563 20.0539C91.6905 20.0539 92.0247 20.1341 92.4229 20.2908L92.6895 20.4475L93.4219 20.2908C95.3559 19.9373 97.8232 19.6603 99.6221 19.5401C99.9563 19.5401 100.355 19.5 100.689 19.5C105.89 19.5 109.957 21.632 110.956 24.5949C111.024 24.9885 111.024 25.7393 110.956 26.0965H110.96ZM107.76 23.6109C107.76 23.4542 107.692 23.4542 107.493 23.2939C106.761 22.9768 105.758 22.6998 104.56 22.5431C104.159 22.4629 103.494 22.4629 102.761 22.4629C99.8283 22.4629 94.2254 23.1736 92.0922 24.1612C90.9581 24.5548 89.9591 27.598 89.8916 28.3852C89.8916 28.9391 89.9591 29.2926 90.1582 29.6498C90.2258 29.8065 90.2898 29.8466 90.4924 29.8867C91.2248 30.0835 92.2273 30.2038 93.2939 30.2038C93.8947 30.2038 94.428 30.1637 95.0288 30.1236C97.4286 29.8466 100.095 29.0558 102.63 27.8713C105.698 26.4099 107.764 24.7116 107.764 23.6073L107.76 23.6109Z" fill="#262626"/>
</svg>
